<svg width="293" height="102" viewBox="0 0 293 102" fill="none" xmlns="http://www.w3.org/2000/svg">
<rect x="116" y="22" width="57" height="9" fill="white"/>
<path d="M43.5 18H16.4C15.7667 18 15.1333 18.05 14.5 18.15C13.8667 18.25 13.2833 18.45 12.75 18.75C12.25 19.05 11.8333 19.5 11.5 20.1C11.1667 20.7 11 21.5 11 22.5V23.5H38.5V30H11V43H2.5V22.5C2.5 20.6333 2.8 18.9667 3.4 17.5C4 16 4.86667 14.7333 6 13.7C7.13333 12.6667 8.5 11.8833 10.1 11.35C11.7 10.7833 13.5 10.5 15.5 10.5H43.5V18ZM56.5078 10.5V43H48.0078V10.5H56.5078ZM93.4344 10.5H103.384L89.2844 26.75L103.384 43H93.4344L81.6344 29.4L69.9344 43H59.9844L74.0344 26.75L59.9844 10.5H69.9344L81.6344 24.15L93.4344 10.5Z" fill="white"/>
<path d="M17.5 84.5V77H29.6C30.2333 77 30.8667 76.95 31.5 76.85C32.1333 76.75 32.7 76.55 33.2 76.25C33.7333 75.95 34.1667 75.5 34.5 74.9C34.8333 74.3 35 73.5 35 72.5V68H16.4C15.7667 68 15.1333 68.05 14.5 68.15C13.8667 68.25 13.2833 68.45 12.75 68.75C12.25 69.05 11.8333 69.5 11.5 70.1C11.1667 70.7 11 71.5 11 72.5V93H2.5V72.5C2.5 70.6333 2.8 68.9667 3.4 67.5C4 66 4.86667 64.7333 6 63.7C7.13333 62.6667 8.5 61.8833 10.1 61.35C11.7 60.7833 13.5 60.5 15.5 60.5H43.5V72.5C43.5 74.3667 43.2 76.05 42.6 77.55C42 79.0167 41.1333 80.2667 40 81.3C38.8667 82.3333 37.5 83.1333 35.9 83.7C34.3 84.2333 32.5 84.5 30.5 84.5H17.5ZM81.2961 83.85L90.4961 93H79.1461L70.7961 84.5H63.4961V77H75.5961C76.2294 77 76.8628 76.95 77.4961 76.85C78.1294 76.75 78.6961 76.55 79.1961 76.25C79.7294 75.95 80.1628 75.5 80.4961 74.9C80.8294 74.3 80.9961 73.5 80.9961 72.5V68H62.3961C61.7628 68 61.1294 68.05 60.4961 68.15C59.8628 68.25 59.2794 68.45 58.7461 68.75C58.2461 69.05 57.8294 69.5 57.4961 70.1C57.1628 70.7 56.9961 71.5 56.9961 72.5V93H48.4961V72.5C48.4961 70.6333 48.7961 68.9667 49.3961 67.5C49.9961 66 50.8628 64.7333 51.9961 63.7C53.1294 62.6667 54.4961 61.8833 56.0961 61.35C57.6961 60.7833 59.4961 60.5 61.4961 60.5H89.4961V72.5C89.4961 75.4333 88.7794 77.8833 87.3461 79.85C85.9128 81.7833 83.8961 83.1167 81.2961 83.85ZM122.492 93H94.4922V72.5C94.4922 70.6333 94.7922 68.9667 95.3922 67.5C95.9922 66 96.8589 64.7333 97.9922 63.7C99.1255 62.6667 100.492 61.8833 102.092 61.35C103.692 60.7833 105.492 60.5 107.492 60.5H135.492V81C135.492 82.8667 135.192 84.55 134.592 86.05C133.992 87.5167 133.126 88.7667 131.992 89.8C130.859 90.8333 129.492 91.6333 127.892 92.2C126.292 92.7333 124.492 93 122.492 93ZM121.592 85.5C122.226 85.5 122.859 85.45 123.492 85.35C124.126 85.25 124.692 85.05 125.192 84.75C125.726 84.45 126.159 84 126.492 83.4C126.826 82.8 126.992 82 126.992 81V68H108.392C107.759 68 107.126 68.05 106.492 68.15C105.859 68.25 105.276 68.45 104.742 68.75C104.242 69.05 103.826 69.5 103.492 70.1C103.159 70.7 102.992 71.5 102.992 72.5V85.5H121.592ZM168.638 84.05L178.688 65.3C179.488 63.8 180.605 62.6333 182.038 61.8C183.505 60.9333 185.238 60.5 187.238 60.5H196.738V93H188.238V68.5C187.872 68.5 187.472 68.5833 187.038 68.75C186.638 68.9167 186.255 69.2833 185.888 69.85L173.438 93H163.788L151.338 69.85C150.972 69.2833 150.572 68.9167 150.138 68.75C149.738 68.5833 149.355 68.5 148.988 68.5V93H140.488V60.5H149.988C151.988 60.5 153.705 60.9333 155.138 61.8C156.605 62.6333 157.738 63.8 158.538 65.3L168.638 84.05ZM216.719 84.5V77H228.819C229.452 77 230.085 76.95 230.719 76.85C231.352 76.75 231.919 76.55 232.419 76.25C232.952 75.95 233.385 75.5 233.719 74.9C234.052 74.3 234.219 73.5 234.219 72.5V68H215.619C214.985 68 214.352 68.05 213.719 68.15C213.085 68.25 212.502 68.45 211.969 68.75C211.469 69.05 211.052 69.5 210.719 70.1C210.385 70.7 210.219 71.5 210.219 72.5V93H201.719V72.5C201.719 70.6333 202.019 68.9667 202.619 67.5C203.219 66 204.085 64.7333 205.219 63.7C206.352 62.6667 207.719 61.8833 209.319 61.35C210.919 60.7833 212.719 60.5 214.719 60.5H242.719V72.5C242.719 74.3667 242.419 76.05 241.819 77.55C241.219 79.0167 240.352 80.2667 239.219 81.3C238.085 82.3333 236.719 83.1333 235.119 83.7C233.519 84.2333 231.719 84.5 229.719 84.5H216.719ZM263.215 68H245.715V60.5H289.215V68H271.715V93H263.215V68Z" fill="white"/>
<path d="M215.65 34.05L225.7 15.3C226.5 13.8 227.617 12.6333 229.05 11.8C230.517 10.9333 232.25 10.5 234.25 10.5H243.75V43H235.25V18.5C234.883 18.5 234.483 18.5833 234.05 18.75C233.65 18.9167 233.267 19.2833 232.9 19.85L220.45 43H210.8L198.35 19.85C197.983 19.2833 197.583 18.9167 197.15 18.75C196.75 18.5833 196.367 18.5 196 18.5V43H187.5V10.5H197C199 10.5 200.717 10.9333 202.15 11.8C203.617 12.6333 204.75 13.8 205.55 15.3L215.65 34.05ZM257.38 10.5L268.93 23.15L280.48 10.5H290.63L273.18 29.6V43H264.68V29.6L247.23 10.5H257.38Z" fill="white"/>
</svg>
